<svg id="_16" data-name="16" xmlns="http://www.w3.org/2000/svg" width="3683" height="1771" viewBox="0 0 3683 1771">
  <defs>
    <style>
      .cls-1 {
        fill: none;
        stroke: #0d9cd9;
        stroke-width: 83.333px;
        fill-rule: evenodd;
      }
    </style>
  </defs>
  <path id="Muoto_29" data-name="Muoto 29" class="cls-1" d="M74,135c26.6,171.88,176.073,300,350,300S747.4,306.88,774,135c26.6,171.88,176.073,300,350,300s323.4-128.12,350-300c26.6,171.88,176.07,300,350,300s323.4-128.12,350-300c26.6,171.88,176.07,300,350,300s323.4-128.12,350-300c26.6,171.88,176.07,300,350,300s323.4-128.12,350-300"/>
  <path id="Muoto_29_kopio" data-name="Muoto 29 kopio" class="cls-1" d="M74,535c26.6,171.88,176.073,300,350,300S747.4,706.88,774,535c26.6,171.88,176.073,300,350,300s323.4-128.12,350-300c26.6,171.88,176.07,300,350,300s323.4-128.12,350-300c26.6,171.88,176.07,300,350,300s323.4-128.12,350-300c26.6,171.88,176.07,300,350,300s323.4-128.12,350-300"/>
  <path id="Muoto_29_kopio_2" data-name="Muoto 29 kopio 2" class="cls-1" d="M74,935c26.6,171.88,176.073,300,350,300s323.4-128.12,350-300c26.6,171.88,176.073,300,350,300s323.4-128.12,350-300c26.6,171.88,176.07,300,350,300s323.4-128.12,350-300c26.6,171.88,176.07,300,350,300s323.4-128.12,350-300c26.6,171.88,176.07,300,350,300s323.4-128.12,350-300"/>
  <path id="Muoto_29_kopio_3" data-name="Muoto 29 kopio 3" class="cls-1" d="M74,1335c26.6,171.88,176.073,300,350,300s323.4-128.12,350-300c26.6,171.88,176.073,300,350,300s323.4-128.12,350-300c26.6,171.88,176.07,300,350,300s323.4-128.12,350-300c26.6,171.88,176.07,300,350,300s323.4-128.12,350-300c26.6,171.88,176.07,300,350,300s323.4-128.12,350-300"/>
</svg>
