<svg id="_90" data-name="90" xmlns="http://www.w3.org/2000/svg" width="2150" height="2001" viewBox="0 0 2150 2001">
  <defs>
    <style>
      .cls-1, .cls-2 {
        fill-rule: evenodd;
      }

      .cls-2 {
        fill: #fff;
      }
    </style>
  </defs>
  <path id="Muoto_13" data-name="Muoto 13" class="cls-1" d="M0,1450L1300,0V1450H0Z"/>
  <path id="Muoto_14" data-name="Muoto 14" class="cls-1" d="M1400,350V1450h750Z"/>
  <path id="Muoto_15" data-name="Muoto 15" class="cls-1" d="M350,1550H1850c-168,250.21-450.48,400.67-752,400C797.9,1949.34,517.219,1799.04,350,1550Z"/>
  <g id="Aallot">
    <path id="Muoto_16" data-name="Muoto 16" class="cls-2" d="M0,1700c66.506,37.21,133.278,55,200,50,82.715-6.2,113.964-50,200-50,90.153,0,109.847,50,200,50s109.847-50,200-50,109.847,50,200,50,109.85-50,200-50,109.85,50,200,50,109.85-50,200-50,109.85,50,200,50c86.04,0,117.29-43.8,200-50,66.72-5,133.49,12.79,200,50v250c-66.51-37.21-133.28-55-200-50-82.71,6.2-113.96,50-200,50-90.15,0-109.85-50-200-50s-109.85,50-200,50-109.85-50-200-50-109.85,50-200,50-109.847-50-200-50-109.847,50-200,50-109.847-50-200-50c-86.036,0-117.285,43.8-200,50-66.722,5-133.494-12.79-200-50V1700Z" fill="param(fill) #fff" stroke="param(outline) #000" stroke-width="param(outline-width) 1"/>
    <path id="Muoto_17" data-name="Muoto 17" class="cls-1" d="M0,1750c66.506,37.21,133.278,55,200,50,82.715-6.2,113.964-50,200-50,90.153,0,109.847,50,200,50s109.847-50,200-50,109.847,50,200,50,109.85-50,200-50,109.85,50,200,50,109.85-50,200-50,109.85,50,200,50c86.04,0,117.29-43.8,200-50,66.72-5,133.49,12.79,200,50v50c-66.51-37.21-133.28-55-200-50-82.71,6.2-113.96,50-200,50-90.15,0-109.85-50-200-50s-109.85,50-200,50-109.85-50-200-50-109.85,50-200,50-109.847-50-200-50-109.847,50-200,50-109.847-50-200-50c-86.036,0-117.285,43.8-200,50-66.722,5-133.494-12.79-200-50v-50Zm0,0c66.506,37.21,133.278,55,200,50,82.715-6.2,113.964-50,200-50,90.153,0,109.847,50,200,50s109.847-50,200-50,109.847,50,200,50,109.85-50,200-50,109.85,50,200,50,109.85-50,200-50,109.85,50,200,50c86.04,0,117.29-43.8,200-50,66.72-5,133.49,12.79,200,50v50c-66.51-37.21-133.28-55-200-50-82.71,6.2-113.96,50-200,50-90.15,0-109.85-50-200-50s-109.85,50-200,50-109.85-50-200-50-109.85,50-200,50-109.847-50-200-50-109.847,50-200,50-109.847-50-200-50c-86.036,0-117.285,43.8-200,50-66.722,5-133.494-12.79-200-50v-50Z"/>
    <path id="Muoto_17_kopio" data-name="Muoto 17 kopio" class="cls-1" d="M1,1852c66.506,37.21,133.278,55,200,50,82.715-6.2,113.964-50,200-50,90.153,0,109.847,50,200,50s109.847-50,200-50,109.847,50,200,50,109.85-50,200-50,109.85,50,200,50,109.85-50,200-50,109.85,50,200,50c86.04,0,117.29-43.8,200-50,66.72-5,133.49,12.79,200,50v50c-66.51-37.21-133.28-55-200-50-82.71,6.2-113.96,50-200,50-90.15,0-109.85-50-200-50s-109.85,50-200,50-109.85-50-200-50-109.85,50-200,50-109.847-50-200-50-109.847,50-200,50-109.847-50-200-50c-86.036,0-117.285,43.8-200,50-66.722,5-133.494-12.79-200-50v-50Zm0,0c66.506,37.21,133.278,55,200,50,82.715-6.2,113.964-50,200-50,90.153,0,109.847,50,200,50s109.847-50,200-50,109.847,50,200,50,109.85-50,200-50,109.85,50,200,50,109.85-50,200-50,109.85,50,200,50c86.04,0,117.29-43.8,200-50,66.72-5,133.49,12.79,200,50v50c-66.51-37.21-133.28-55-200-50-82.71,6.2-113.96,50-200,50-90.15,0-109.85-50-200-50s-109.85,50-200,50-109.85-50-200-50-109.85,50-200,50-109.847-50-200-50-109.847,50-200,50-109.847-50-200-50c-86.036,0-117.285,43.8-200,50-66.722,5-133.494-12.79-200-50v-50Z"/>
  </g>
</svg>
