<svg id="_91" data-name="91" xmlns="http://www.w3.org/2000/svg" width="2650" height="2106" viewBox="0 0 2650 2106">
  <defs>
    <style>
      .cls-1, .cls-2 {
        fill-rule: evenodd;
      }

      .cls-2 {
        fill: #fff;
      }
    </style>
  </defs>
  <path id="Muoto_18" data-name="Muoto 18" class="cls-1" d="M400,1605c46.606-112.88,114.192-214.65,200-300a883.883,883.883,0,0,1,500-250V905H900V705H800q50-100,100-200c-15.812-124.2,19.331-249.877,100-346,75.51-89.972,180.12-139.956,282-154,82.96-11.436,298.18-16.754,418,166,94.22,143.712,67.86,316.158,0,426-25.85,41.845-59.61,78.017-100,108l3,350c107.51,33.55,207.62,83.97,297,150,91.69,67.74,156.39,137.07,200,200a789.226,789.226,0,0,1,100,200H400Z"/>
  <g id="Ryhmä_1" data-name="Ryhmä 1">
    <path id="Muoto_19" data-name="Muoto 19" class="cls-2" d="M0,1355c132.971,74.4,266.518,110,400,100,165.429-12.39,227.927-100,400-100,180.306,0,219.69,100,400,100s219.69-100,400-100,219.69,100,400,100c172.07,0,234.57-87.61,400-100,133.44-10,266.99,25.57,400,100v650c-133.01-74.43-266.56-110-400-100-165.43,12.39-227.93,100-400,100-180.31,0-219.69-100-400-100s-219.69,100-400,100-219.694-100-400-100c-172.073,0-234.571,87.61-400,100-133.444,10-266.989-25.57-400-100V1355Z" fill="param(fill) #fff" stroke="param(outline) #000" stroke-width="param(outline-width) 1"/>
    <path id="Muoto_20" data-name="Muoto 20" class="cls-1" d="M0,1455c135.508,109.37,269.257,163.01,400,150,167.733-16.69,232.107-150,400-150,178.992,0,221.01,150,400,150s221.01-150,400-150,221.01,150,400,150c167.89,0,232.27-133.31,400-150,130.74-13.01,264.49,40.63,400,150v400c-135.51-109.37-269.26-163.01-400-150-167.73,16.69-232.11,150-400,150-178.99,0-221.01-150-400-150s-221.01,150-400,150-221.008-150-400-150c-167.893,0-232.267,133.31-400,150-130.743,13.01-264.492-40.63-400-150V1455Z"/>
  </g>
</svg>
