<?xml version="1.0" standalone="no"?>
<!DOCTYPE svg PUBLIC "-//W3C//DTD SVG 20010904//EN"
 "http://www.w3.org/TR/2001/REC-SVG-20010904/DTD/svg10.dtd">
<svg version="1.0" xmlns="http://www.w3.org/2000/svg"
 width="511.000000pt" height="312.000000pt" viewBox="0 0 511.000000 312.000000"
 preserveAspectRatio="xMidYMid meet">

<g transform="translate(0.000000,312.000000) scale(0.100000,-0.100000)"
fill="#000000" stroke="none">
<path d="M2280 2645 c0 -444 -1 -476 -17 -482 -59 -20 -193 -89 -255 -130
-189 -126 -362 -355 -424 -563 l-18 -60 -783 0 -783 0 0 -280 0 -280 781 -2
781 -3 28 -80 c127 -374 446 -646 845 -720 132 -25 346 -16 475 20 360 99 646
370 760 717 l22 68 709 0 709 0 0 280 0 280 -712 2 -711 3 -22 65 c-72 208
-203 391 -374 521 -86 65 -265 153 -368 182 l-83 22 0 458 0 457 -280 0 -280
0 0 -475z m565 -629 c224 -59 421 -200 546 -389 68 -104 110 -206 135 -327 22
-110 15 -312 -15 -415 -90 -313 -321 -545 -638 -642 -79 -24 -104 -26 -243
-27 -129 0 -168 4 -235 22 -328 91 -579 348 -662 679 -26 103 -23 332 6 438
94 349 380 610 738 675 71 13 298 4 368 -14z"/>
</g>
</svg>
