<svg id="_161_ja_162" data-name="161 ja 162" xmlns="http://www.w3.org/2000/svg" width="4000" height="2000" viewBox="0 0 4000 2000">
  <defs>
    <style>
      .cls-1, .cls-2 {
        fill: none;
        stroke: #000;
        fill-rule: evenodd;
      }

      .cls-1 {
        stroke-width: 40px;
      }

      .cls-2 {
        stroke-width: 20px;
      }
    </style>
  </defs>
  <path id="Muoto_5" data-name="Muoto 5" class="cls-1" d="M0,0H4000"/>
  <path id="Soikio_3" data-name="Soikio 3" class="cls-2" d="M580,40A180,180,0,1,1,400,220,180,180,0,0,1,580,40Zm360,0A180,180,0,1,1,760,220,180,180,0,0,1,940,40Z"/>
  <path id="Soikio_3-2" data-name="Soikio 3" class="cls-2" d="M3060,40a180,180,0,1,1-180,180A180,180,0,0,1,3060,40Zm360,0a180,180,0,1,1-180,180A180,180,0,0,1,3420,40Z"/>
  <path id="Muoto_6" data-name="Muoto 6" class="cls-1" d="M0,1600H4000"/>
  <path id="Muoto_16" data-name="Muoto 16" class="cls-2" d="M0,1600c5.714,244.04,118.9,400,200,400s194.286-155.96,200-400m0,0c5.714-244.04,118.9-400,200-400s194.286,155.96,200,400m0,0c5.714,244.04,118.9,400,200,400s194.29-155.96,200-400m0,0c5.71-244.04,118.9-400,200-400s194.29,155.96,200,400m0,0c5.71,244.04,118.9,400,200,400s194.29-155.96,200-400m0,0c5.71-244.04,118.9-400,200-400s194.29,155.96,200,400m0,0c5.71,244.04,118.9,400,200,400s194.29-155.96,200-400m0,0c5.71-244.04,118.9-400,200-400s194.29,155.96,200,400m0,0c5.71,244.04,118.9,400,200,400s194.29-155.96,200-400m0,0c5.71-244.04,118.9-400,200-400s194.29,155.96,200,400"/>
</svg>
